<svg xmlns="http://www.w3.org/2000/svg" width="24" height="24" viewBox="0 0 24 24" fill="none" stroke="currentColor" stroke-width="2" stroke-linecap="round" stroke-linejoin="round" class="icon icon-tabler icons-tabler-outline icon-tabler-brand-bluesky"><path stroke="none" d="M0 0h24v24H0z" fill="none"/><path d="M6.335 5.144c-1.654 -1.199 -4.335 -2.127 -4.335 .826c0 .603 .369 5.07 .585 5.792c.748 2.491 3.524 3.31 5.985 2.857c-3.524 .523 -4.355 2.79 -2.438 5.06c2.286 2.713 3.829 -.115 4.868 -2.25c.211 -.435 .33 -.638 .998 -.638c.654 0 .782 .206 .993 .638c1.039 2.135 2.583 4.963 4.869 2.25c1.917 -2.27 1.086 -4.537 -2.438 -5.06c2.461 .453 5.237 -.366 5.985 -2.857c.216 -.722 .585 -5.189 .585 -5.792c0 -2.953 -2.681 -2.025 -4.335 -.826c-2.296 1.665 -4.766 5.04 -5.669 6.85c-.903 -1.81 -3.373 -5.185 -5.669 -6.85z" /></svg>
